<?xml version="1.0" encoding="utf-8"?>
<!-- Generator: Adobe Illustrator 27.5.0, SVG Export Plug-In . SVG Version: 6.00 Build 0)  -->
<svg version="1.1" xmlns="http://www.w3.org/2000/svg" xmlns:xlink="http://www.w3.org/1999/xlink" x="0px" y="0px"
	 viewBox="0 0 500 500" style="enable-background:new 0 0 500 500;" xml:space="preserve">
<g id="Background_Simple">
	<g>
		<path style="fill:#92E3A9;" d="M187.04,322.118C139.372,307.428,30.234,272.939,51,176.164
			C75,64.32,207.216,140.136,288.333,102.32c57.412-26.765,177.244-54.963,168.447,65.865
			c-8.559,117.551-13.473,202.73-83.127,222.933C304,411.319,259.085,344.319,187.04,322.118z"/>
		<path style="opacity:0.7;fill:#FFFFFF;" d="M187.04,322.118C139.372,307.428,30.234,272.939,51,176.164
			C75,64.32,207.216,140.136,288.333,102.32c57.412-26.765,177.244-54.963,168.447,65.865
			c-8.559,117.551-13.473,202.73-83.127,222.933C304,411.319,259.085,344.319,187.04,322.118z"/>
	</g>
</g>
<g id="Floor">
	
		<line style="fill:none;stroke:#263238;stroke-linecap:round;stroke-linejoin:round;stroke-miterlimit:10;" x1="43.22" y1="408.506" x2="456.78" y2="408.506"/>
</g>
<g id="Plant">
	<g>
		<path style="fill:#92E3A9;" d="M113.97,294.511c6.053,5.032,4.047,34.399,22.764,21.752
			c18.717-12.647-13.208-20.147-11.382-27.317c2.556-10.036,44.769,2.023,37.687-17.199c-7.082-19.223-32.318,9.686-38.952,2.529
			c-6.094-6.574,24.282-30.352,10.117-34.399c-14.164-4.047-11.115,30.356-20.235,30.352c-7.096-0.003-5.775-32.881-18.822-21.246
			s15.473,23.098,11.74,30.318c-2.837,5.488-25.293-8.06-24.281,4.586C83.619,296.534,107.605,289.218,113.97,294.511z"/>
		<path style="fill:none;stroke:#263238;stroke-linecap:round;stroke-linejoin:round;stroke-miterlimit:10;" d="M118.017,279.472
			c0,0-13.658,16.556-12.141,61.578"/>
		<g>
			<g>
				<path style="fill:#92E3A9;" d="M144.627,302.897c-2.42-4.87-22.482-8.194-11.002-18.765
					c11.48-10.571,11.443,12.085,16.554,11.998c7.154-0.121,5.763-30.42,17.559-22.6c11.797,7.82-11.654,20.186-7.898,25.785
					c3.45,5.143,24.269-11.495,24.736-1.329c0.467,10.167-22.177,2.643-23.625,8.775c-1.127,4.771,21.187,9.114,11.289,16.035
					c-9.898,6.92-13.067-14.078-18.515-12.717c-4.141,1.034,1.395,18.287-6.947,15.595
					C138.437,322.981,147.172,308.019,144.627,302.897z"/>
				<path style="opacity:0.3;" d="M144.627,302.897c-2.42-4.87-22.482-8.194-11.002-18.765
					c11.48-10.571,11.443,12.085,16.554,11.998c7.154-0.121,5.763-30.42,17.559-22.6c11.797,7.82-11.654,20.186-7.898,25.785
					c3.45,5.143,24.269-11.495,24.736-1.329c0.467,10.167-22.177,2.643-23.625,8.775c-1.127,4.771,21.187,9.114,11.289,16.035
					c-9.898,6.92-13.067-14.078-18.515-12.717c-4.141,1.034,1.395,18.287-6.947,15.595
					C138.437,322.981,147.172,308.019,144.627,302.897z"/>
			</g>
			<path style="fill:none;stroke:#263238;stroke-linecap:round;stroke-linejoin:round;stroke-miterlimit:10;" d="M154.946,303.11
				c0,0-38.87-4.047-42.705,37.94"/>
		</g>
		<g>
			<g>
				<path style="fill:#92E3A9;" d="M80.844,298.558c-6.053,5.032-4.047,34.399-22.764,21.752
					c-18.717-12.647,13.208-20.147,11.382-27.317c-2.556-10.036-44.769,2.023-37.687-17.199c7.082-19.223,32.318,9.686,38.952,2.529
					c6.094-6.574-24.282-30.352-10.117-34.399c14.164-4.047,11.115,30.356,20.235,30.352c7.096-0.003,5.775-32.881,18.822-21.246
					c13.047,11.635-15.473,23.098-11.74,30.318c2.837,5.487,25.293-8.06,24.281,4.586C111.196,300.581,87.21,293.265,80.844,298.558
					z"/>
				<path style="opacity:0.3;fill:#FFFFFF;" d="M80.844,298.558c-6.053,5.032-4.047,34.399-22.764,21.752
					c-18.717-12.647,13.208-20.147,11.382-27.317c-2.556-10.036-44.769,2.023-37.687-17.199c7.082-19.223,32.318,9.686,38.952,2.529
					c6.094-6.574-24.282-30.352-10.117-34.399c14.164-4.047,11.115,30.356,20.235,30.352c7.096-0.003,5.775-32.881,18.822-21.246
					c13.047,11.635-15.473,23.098-11.74,30.318c2.837,5.487,25.293-8.06,24.281,4.586C111.196,300.581,87.21,293.265,80.844,298.558
					z"/>
			</g>
			<path style="fill:none;stroke:#263238;stroke-linecap:round;stroke-linejoin:round;stroke-miterlimit:10;" d="M76.536,283.519
				c0,0,17.705,23.638,21.752,63.096"/>
		</g>
		<path style="fill:#92E3A9;stroke:#263238;stroke-linecap:round;stroke-linejoin:round;stroke-miterlimit:10;" d="M89.213,408.339
			h27.6c5.284,0,9.688-4.045,10.135-9.31l4.339-50.991c0.505-5.937-4.177-11.035-10.135-11.035H84.874
			c-5.958,0-10.641,5.098-10.136,11.035l4.339,50.991C79.525,404.294,83.929,408.339,89.213,408.339z"/>
	</g>
</g>
<g id="Character_1_">
	<g>
		<g>
			<path style="fill:#263238;stroke:#263238;stroke-linecap:round;stroke-linejoin:round;stroke-miterlimit:10;" d="
				M295.877,335.104c-9.223,0-35.871-6.019-35.871-6.019h71.741C331.747,329.084,305.1,335.104,295.877,335.104z"/>
			
				<rect x="287.657" y="332.094" style="fill:#858585;stroke:#263238;stroke-linecap:round;stroke-linejoin:round;stroke-miterlimit:10;" width="16.44" height="11.267"/>
			
				<rect x="285.226" y="343.361" style="fill:#999999;stroke:#263238;stroke-linecap:round;stroke-linejoin:round;stroke-miterlimit:10;" width="21.302" height="48.454"/>
			<path style="fill:#858585;stroke:#263238;stroke-linecap:round;stroke-linejoin:round;stroke-miterlimit:10;" d="
				M335.888,314.712c-5.538,0-8.306,0-13.844,0c1.539-9.538,2.674-19.258,3.374-28.893c5.538,0,8.306,0,13.844,0
				C338.562,295.454,337.427,305.174,335.888,314.712z"/>
			<path style="fill:#858585;stroke:#263238;stroke-linecap:round;stroke-linejoin:round;stroke-miterlimit:10;" d="
				M356.918,200.484c-19.893,0-39.785,0-59.678,0c-7.016,0-11.606,5.922-10.249,12.903c3.82,21.485,6.079,42.725,6.823,64.543
				c0.112,6.321,4.924,11.205,11.25,11.205c16.746,0,33.492,0,50.237,0c6.326,0,12.021-4.884,12.833-11.205
				c2.419-21.586,3.294-42.823,2.618-64.543C370.421,206.406,363.934,200.484,356.918,200.484z"/>
			<path style="fill:#999999;stroke:#263238;stroke-linecap:round;stroke-linejoin:round;stroke-miterlimit:10;" d="
				M360.169,213.386c0.676,21.72-0.199,42.958-2.618,64.543c-0.812,6.321-6.507,11.205-12.833,11.205c-13.218,0-26.436,0-39.654,0
				c-6.326,0-11.138-4.884-11.25-11.205c-0.744-21.819-3.003-43.059-6.823-64.543c-1.357-6.98,3.233-12.903,10.249-12.903
				c16.365,0,32.729,0,49.094,0C353.35,200.484,359.837,206.406,360.169,213.386z"/>
			<path style="fill:#263238;stroke:#263238;stroke-linecap:round;stroke-linejoin:round;stroke-miterlimit:10;" d="
				M331.747,400.513c0,1.137-1.047,1.983-2.158,1.741c-6.528-1.423-26.083-5.543-33.712-5.543c-7.629,0-27.184,4.119-33.712,5.543
				c-1.111,0.242-2.158-0.604-2.158-1.741l0,0c0-2.204,1.535-4.107,3.69-4.569c7.642-1.641,25.078-5.211,32.181-5.211
				c7.102,0,24.539,3.57,32.181,5.211C330.213,396.406,331.747,398.309,331.747,400.513L331.747,400.513z"/>
			<g>
				<path style="fill:#858585;stroke:#263238;stroke-linecap:round;stroke-linejoin:round;stroke-miterlimit:10;" d="
					M260.007,396.909c-3.388,0-6.135,2.747-6.135,6.135c0,3.388,2.747,6.135,6.135,6.135c3.388,0,6.135-2.747,6.135-6.135
					C266.141,399.655,263.395,396.909,260.007,396.909z M260.007,406.366c-1.835,0-3.323-1.488-3.323-3.323
					c0-1.835,1.488-3.323,3.323-3.323s3.323,1.488,3.323,3.323C263.329,404.879,261.842,406.366,260.007,406.366z"/>
				<path style="fill:#858585;stroke:#263238;stroke-linecap:round;stroke-linejoin:round;stroke-miterlimit:10;" d="
					M295.877,396.909c-3.388,0-6.135,2.747-6.135,6.135c0,3.388,2.747,6.135,6.135,6.135c3.388,0,6.135-2.747,6.135-6.135
					C302.012,399.655,299.265,396.909,295.877,396.909z M295.877,406.366c-1.835,0-3.323-1.488-3.323-3.323
					c0-1.835,1.488-3.323,3.323-3.323c1.835,0,3.323,1.488,3.323,3.323C299.2,404.879,297.712,406.366,295.877,406.366z"/>
				<path style="fill:#858585;stroke:#263238;stroke-linecap:round;stroke-linejoin:round;stroke-miterlimit:10;" d="
					M331.003,396.909c-3.388,0-6.135,2.747-6.135,6.135c0,3.388,2.747,6.135,6.135,6.135c3.388,0,6.135-2.747,6.135-6.135
					C337.137,399.655,334.391,396.909,331.003,396.909z M331.003,406.366c-1.835,0-3.323-1.488-3.323-3.323
					c0-1.835,1.488-3.323,3.323-3.323c1.835,0,3.323,1.488,3.323,3.323C334.325,404.879,332.838,406.366,331.003,406.366z"/>
			</g>
			<path style="fill:#999999;stroke:#263238;stroke-linecap:round;stroke-linejoin:round;stroke-miterlimit:10;" d="
				M314.061,312.772c-24.143,0.748-47.709-0.295-71.692-3.169c-4.883-0.656-8.83,2.685-8.831,7.586c0,0.469,0,0.703,0,1.171
				c0,4.9,3.948,9.504,8.831,10.16c23.983,2.875,47.549,3.917,71.692,3.169C314.061,324.123,314.061,320.339,314.061,312.772z"/>
			<path style="fill:#858585;stroke:#263238;stroke-linecap:round;stroke-linejoin:round;stroke-miterlimit:10;" d="
				M351.662,328.207c-14.861,1.858-29.591,3.094-44.553,3.737c-3.648,0.102-6.607-2.819-6.607-6.456c0-2.297,0-3.446,0-5.743
				c0-3.638,2.958-6.615,6.607-6.717c14.962-0.643,29.693-1.879,44.553-3.737c3.623-0.508,6.553,1.975,6.553,5.613
				c0,2.297,0,3.446,0,5.743C358.216,324.284,355.285,327.699,351.662,328.207z"/>
		</g>
		<g>
			<g>
				<g>
					<g>
						<path style="fill:#FFFFFF;stroke:#263238;stroke-linecap:round;stroke-linejoin:round;stroke-miterlimit:10;" d="
							M252.165,405.991c-0.044-3.341-0.728-10.029-4.66-18.652l-5.133-18.5l-16,6.833l4.5,14.167c0,0-13.755,6.563-18.833,8.333
							c-3.383,1.179-13.5,3.5-13,7.833l0,0c0,1.289,1.045,2.333,2.333,2.333h48.459
							C251.127,408.339,252.182,407.287,252.165,405.991z"/>
						<path style="fill:#92E3A9;stroke:#263238;stroke-linecap:round;stroke-linejoin:round;stroke-miterlimit:10;" d="
							M243.361,395.172c-2.5,1.833-15.833,4.167-12.489,1.5c3.344-2.667,0-6.833,0-6.833s-13.755,6.563-18.833,8.333
							c-3.383,1.179-13.5,3.5-13,7.833c0,1.289,1.045,2.333,2.333,2.333h48.459c1.296,0,2.351-1.052,2.334-2.348
							c-0.037-2.822-0.539-8.038-3.061-14.785C246.348,391.24,245.861,393.34,243.361,395.172z"/>
					</g>
					<g>
						<path style="fill:#FFFFFF;stroke:#263238;stroke-linecap:round;stroke-linejoin:round;stroke-miterlimit:10;" d="
							M263.74,408.339h35.498c0.734,0,1.36-0.52,1.499-1.241c0.544-2.822,0.42-9.131-2.782-17.509l-0.315-17.01l-18.185,3.094
							l2.307,14.5c0,0-7.322,8.057-10.8,9.5c-2.444,1.014-7.997,1.122-8.744,6.965C262.103,407.541,262.829,408.339,263.74,408.339z
							"/>
						<path style="fill:#92E3A9;stroke:#263238;stroke-linecap:round;stroke-linejoin:round;stroke-miterlimit:10;" d="
							M291.963,395.237c-3.753,2.624-6.518,2.935-4.768-1c1.75-3.935-5.432-4.065-5.432-4.065s-7.322,8.057-10.8,9.5
							c-2.444,1.014-7.997,1.122-8.744,6.965c-0.115,0.903,0.611,1.702,1.522,1.702h35.498c0.734,0,1.36-0.52,1.499-1.241
							c0.544-2.822,0.42-9.131-2.782-17.509C295.216,390.256,295.716,392.613,291.963,395.237z"/>
					</g>
					<path style="fill:#263238;stroke:#263238;stroke-linecap:round;stroke-linejoin:round;stroke-miterlimit:10;" d="
						M260.205,278.506c0,0-3.574,3.667-18.204,6c-14.63,2.333-44.963,9.667-44.63,21.667c0.333,12,28.333,76,28.333,76
						s14-2.667,20.5-6.667c0,0-11.269-45.667-19.718-57.667c0,0,37.931-4.667,58.908-13.333c20.977-8.667,8.644-28.391,8.644-28.391
						L260.205,278.506z"/>
					<path style="fill:#263238;stroke:#263238;stroke-linecap:round;stroke-linejoin:round;stroke-miterlimit:10;" d="
						M284.037,276.822c0,0,5.381,9.018,1.358,14.018c-4.023,5-26.843,14.333-24.266,25.667
						c2.577,11.333,11.096,27.333,16.653,65.333c0,0,12.923-2,21.59-5.667c0,0,1.437-38.667-8.615-55.333
						c0,0,28.782-5.333,31.698-15c2.917-9.667-2.54-24.449-2.645-29.724L284.037,276.822z"/>
					<g>
						<path style="fill:none;stroke:#7F7F7F;stroke-width:0.75;stroke-linecap:round;stroke-linejoin:round;" d="M266.697,291.141
							c-0.636-0.042-1.3-0.035-1.992,0.032"/>
						<path style="fill:none;stroke:#7F7F7F;stroke-width:0.75;stroke-linecap:round;stroke-linejoin:round;" d="M267.963,285.172
							c0,0,5.912,1.74,8.23,9.443c0.184,0.61-0.577,1.076-1.025,0.624c-1.232-1.244-3.151-2.773-5.693-3.575"/>
					</g>
					<path style="fill:none;stroke:#7F7F7F;stroke-width:0.75;stroke-linecap:round;stroke-linejoin:round;" d="M223.705,317.422
						c0-3.251-14-5-10.25-8s12.25,6.75,12.25,6.75"/>
					<path style="fill:none;stroke:#7F7F7F;stroke-width:0.75;stroke-linecap:round;stroke-linejoin:round;" d="M292.497,330.422
						c0-3.722-13.378-5.75-12.71-9.75c0.668-4,9.168,3.875,9.168,3.875"/>
					<path style="fill:#999999;stroke:#263238;stroke-linecap:round;stroke-linejoin:round;stroke-miterlimit:10;" d="
						M224.231,382.401l1.473,3.4c0.167,0.386,0.581,0.6,0.991,0.508c3.234-0.73,16.714-3.913,21.449-7.31
						c0.282-0.202,0.399-0.565,0.317-0.903l-0.918-3.788c-0.136-0.562-0.765-0.839-1.273-0.561
						c-2.126,1.162-8.058,3.932-21.45,7.458C224.301,381.341,224.018,381.909,224.231,382.401z"/>
					<path style="fill:#999999;stroke:#263238;stroke-linecap:round;stroke-linejoin:round;stroke-miterlimit:10;" d="
						M276.154,379.601c-0.074-0.511,0.42-0.934,0.904-0.754c0.959,0.355,2.582,0.633,5.022,0.076
						c3.707-0.847,14.323-4.207,17.479-5.214c0.446-0.142,0.896,0.193,0.896,0.661v4.423c0,0.273-0.156,0.519-0.405,0.63
						c-2.483,1.105-15.77,6.797-22.723,5.246c-0.277-0.062-0.48-0.299-0.521-0.58L276.154,379.601z"/>
					<g>
						<path style="fill:none;stroke:#7F7F7F;stroke-linecap:round;stroke-linejoin:round;" d="M286.847,287.041
							c-0.126,1.37-0.555,2.684-1.452,3.799c-2.934,3.647-15.869,9.599-21.655,16.952"/>
						<path style="fill:none;stroke:#7F7F7F;stroke-linecap:round;stroke-linejoin:round;" d="M286.225,281.955
							c0.211,0.72,0.39,1.479,0.509,2.251"/>
					</g>
				</g>
				<path style="fill:none;stroke:#263238;stroke-linecap:round;stroke-linejoin:round;stroke-miterlimit:10;" d="M209.64,400.422
					c0,0,1,1.583,1.75,4.75h36.115c0,0,0.096-2.42,2.01-4.125"/>
				<path style="fill:none;stroke:#263238;stroke-linecap:round;stroke-linejoin:round;stroke-miterlimit:10;" d="M272.39,400.422
					c0,0,5,0.375,6.875,4.75h18.875c0,0,1-2.25,1-4.125"/>
			</g>
			<g>
				<g>
					<g>
						<defs>
							<path id="XMLID_8_" d="M242.79,221.949c0.464,1.766,0.94,3.514,1.415,5.224c5,18,11.5,52.25,11.5,52.25
								c32,6.75,65.75,0,65.75,0c0.184-7.466-0.725-17.315-1.738-27.66c5.248-1.452,9.032-6.296,9.238-14.34
								c0.25-9.75-1.517-27.305-2.5-35.5c-0.865-7.212-0.25-11.5-11.42-16.965c-5.598-3.232-14.894-4.76-26.33-6.285
								c-22.5-3-38.736,1.546-44.5,4c-4.568-1.202-5.838,4.161-5.838,4.161c-2.531-1.917-5.469,6.186-5.469,6.186
								c-7.401,9.444-13.222,25.346-15.158,31.018c-0.424,1.241-1.216,2.315-2.259,3.11c-5.25,4.004-2.333,8.953-2.333,8.953
								l10.75,3.295c0,0,5.208,1.355,9.188-5.494C236.414,228.171,241.853,218.458,242.79,221.949z"/>
						</defs>
						<use xlink:href="#XMLID_8_"  style="overflow:visible;fill:#92E3A9;"/>
						<clipPath id="XMLID_00000175312150726012768440000007105025448072174517_">
							<use xlink:href="#XMLID_8_"  style="overflow:visible;"/>
						</clipPath>
						<path style="opacity:0.3;clip-path:url(#XMLID_00000175312150726012768440000007105025448072174517_);" d="M225.878,234.874
							c0,0-0.25-4.999-4.25-5.874s1.125-2.367,4.25-1.621c3.125,0.746,2.405-2.004,5.077-6.504c2.673-4.5,3.984-8.057,6.267-5.462
							c2.282,2.595,4.605,2.952,5.568,6.536c0.963,3.584-3.787,11.952-3.787,11.952l-7.462,5.787l-3.788,2.125h-5.658l-1.932-4.89
							L225.878,234.874z"/>
						
							<use xlink:href="#XMLID_8_"  style="overflow:visible;fill:none;stroke:#263238;stroke-linecap:round;stroke-linejoin:round;stroke-miterlimit:10;"/>
					</g>
					<path style="opacity:0.3;" d="M321.455,279.422c0.133-5.402-0.309-12.059-0.946-19.24c1.09,15.223-30.62,19.987-31.62,11.736
						c-1-8.255,30.827-20.155,13.51-15.995c-15.115,3.631-44.396,0.162-51.602-0.779c2.767,13.007,4.907,24.279,4.907,24.279
						C287.705,286.172,321.455,279.422,321.455,279.422z"/>
					<path style="opacity:0.3;" d="M306.915,202.923c0,0-4.525,13.249-4.515,20.249c0.01,6.994-12.694,11.693-12.717,11.701
						c6.803-1.387,13.427-3.216,16.592-4.13c1.122-0.324,1.856-1.39,1.755-2.554C307.404,221.013,306.729,211.348,306.915,202.923
						L306.915,202.923z"/>
				</g>
				
					<path style="fill:none;stroke:#263238;stroke-width:0.75;stroke-linecap:round;stroke-linejoin:round;stroke-miterlimit:10;" d="
					M238.6,199.587c0,0-0.152,9.531,3.335,18.291c0.323,0.812-0.599,1.553-1.31,1.044c-1.715-1.228-4.142-3.731-6.336-8.773"/>
				
					<path style="fill:none;stroke:#263238;stroke-width:0.75;stroke-linecap:round;stroke-linejoin:round;stroke-miterlimit:10;" d="
					M323.455,240.423c-2.638-8.748-7.205-10.94-10.743-11.16c-0.568-0.035-0.758-0.78-0.258-1.051
					c2.053-1.113,6.061-1.99,11.001,3.461"/>
				
					<path style="fill:#999999;stroke:#263238;stroke-width:0.75;stroke-linecap:round;stroke-linejoin:round;stroke-miterlimit:10;" d="
					M272.728,215.377c0,0.83-0.673,1.502-1.502,1.502s-1.502-0.673-1.502-1.502c0-0.83,0.673-1.503,1.502-1.503
					S272.728,214.547,272.728,215.377z"/>
				
					<path style="fill:#999999;stroke:#263238;stroke-width:0.75;stroke-linecap:round;stroke-linejoin:round;stroke-miterlimit:10;" d="
					M274.764,232.398c0,0.83-0.673,1.502-1.502,1.502s-1.502-0.673-1.502-1.502c0-0.83,0.673-1.502,1.502-1.502
					S274.764,231.568,274.764,232.398z"/>
				<path style="fill:#999999;stroke:#263238;stroke-linecap:round;stroke-linejoin:round;stroke-miterlimit:10;" d="
					M279.787,273.42c0,0.83-0.673,1.502-1.502,1.502c-0.83,0-1.502-0.673-1.502-1.502c0-0.83,0.673-1.502,1.502-1.502
					C279.114,271.918,279.787,272.59,279.787,273.42z"/>
				<g>
					<path style="fill:#FFFFFF;stroke:#263238;stroke-linecap:round;stroke-linejoin:round;stroke-miterlimit:10;" d="
						M251.072,243.548c0,0-4.911,4.686-2.576,4.759c2.335,0.073,5.29-3.134,7.999-3.509c2.71-0.375-1.665-2.031-1.665-2.031
						L251.072,243.548z"/>
					<g>
						<path style="fill:#FFFFFF;stroke:#263238;stroke-linecap:round;stroke-linejoin:round;stroke-miterlimit:10;" d="
							M279.742,238.285c-0.44-0.401-1.037-0.591-1.63-0.543c-2.406,0.194-9.297,0.716-11.907,0.555
							c-4.615-0.284-18.221-3.167-18.221-3.167c-0.315-0.055-0.639-0.036-0.946,0.054l-8.426,2.476
							c-0.307,0.09-0.589,0.25-0.824,0.466l-5.1,4.687c-0.169,0.155-0.31,0.336-0.42,0.537l-1.057,1.937
							c-0.447,0.819-0.296,1.836,0.37,2.49l0,0l8.439,0.264c0.521,0.016,1.029-0.163,1.425-0.502l2.499-2.143
							c0.167-0.143,0.307-0.312,0.424-0.498c0.616-0.988,2.971-4.296,6.705-3.976c0,0-7.992,4.25-6.492,6s7.625-3.25,9.625-2.75
							c1.957,0.489,2.133,5.405,13.018,3.628c0.483-0.079,0.983-0.06,1.454,0.072l9.9,2.768c1.24,0.347,2.513-0.397,2.832-1.644
							C282.15,246.1,282.826,241.095,279.742,238.285z"/>
						<path style="fill:#FFFFFF;stroke:#263238;stroke-linecap:round;stroke-linejoin:round;stroke-miterlimit:10;" d="
							M249.161,236.923l-2.123,0.358c-1.035,0.174-2,0.633-2.79,1.324l-2.207,1.931c-0.389,0.34-0.729,0.732-1.012,1.164
							l-1.448,2.215c-0.159,0.244-0.339,0.473-0.535,0.689c-0.86,0.949-3.227,3.764-0.67,3.388"/>
						<path style="fill:#FFFFFF;stroke:#263238;stroke-linecap:round;stroke-linejoin:round;stroke-miterlimit:10;" d="
							M243.192,237.673l-2.195,0.593c-0.684,0.185-1.309,0.539-1.82,1.029l-1.711,1.643c-0.162,0.156-0.312,0.325-0.447,0.505
							l-2.808,3.73c0,0-1.503,2.641,0,2.688"/>
					</g>
				</g>
				<path style="fill:none;stroke:#263238;stroke-linecap:round;stroke-linejoin:round;stroke-miterlimit:10;" d="M306.98,200.801
					c-0.37,8.882,0.37,19.602,1.048,27.388c0.101,1.164-0.632,2.23-1.755,2.554c-4.367,1.261-15.314,4.269-24.238,5.445"/>
				
					<path style="fill:none;stroke:#263238;stroke-width:0.75;stroke-linecap:round;stroke-linejoin:round;stroke-miterlimit:10;" d="
					M307.479,194.6c-0.131,1.017-0.238,2.087-0.323,3.198"/>
				
					<path style="fill:none;stroke:#263238;stroke-width:0.75;stroke-linecap:round;stroke-linejoin:round;stroke-miterlimit:10;" d="
					M310.835,185.235c-1.147,0.986-1.991,2.815-2.598,5.219"/>
				<path style="fill:#FFFFFF;" d="M260.765,179.298c0,0,0.625-2,4-3.125s15.052-2.927,21.063,0c6.01,2.927-5.5,18.813-5.5,18.813
					l-5.375,7.375l-4.75,3.563l-2.125-6.336l-2.75-2.852c0,0-5.938-4.875-5.438-9.688S260.765,179.298,260.765,179.298z"/>
				<g>
					<defs>
						<path id="XMLID_1_" d="M290.267,178.883c-0.938-3.289-5.229-4.211-5.229-4.211c-20.5-3.5-24.833,3.951-24.833,3.951
							c-4.167,11.618,0,20.963,0,20.963s5.833-2.414,6.833,0c1,2.414,2.833,7.586,2.833,7.586s4-2,7.167-6.167
							c3.167-4.167,10.614,0,10.614,0C292.434,192.673,290.267,178.883,290.267,178.883z M285.31,178.637
							c-7.938,24.922-14.938,26.036-14.938,26.036c-2.333-9.167-4.333-7.167-7.5-12.894c-2.541-4.595-1.681-10.421-1.242-12.545
							c0.107-0.516,0.434-0.963,0.904-1.202c7.877-4.01,17.516-2.535,21.49-1.657C285.035,176.598,285.625,177.651,285.31,178.637z"
							/>
					</defs>
					<use xlink:href="#XMLID_1_"  style="overflow:visible;fill:#92E3A9;"/>
					<clipPath id="XMLID_00000083076755534505603370000000153779512027333544_">
						<use xlink:href="#XMLID_1_"  style="overflow:visible;"/>
					</clipPath>
					<path style="opacity:0.4;clip-path:url(#XMLID_00000083076755534505603370000000153779512027333544_);fill:#FFFFFF;" d="
						M290.267,178.883c-0.938-3.289-5.229-4.211-5.229-4.211c-20.5-3.5-24.833,3.951-24.833,3.951c-4.167,11.618,0,20.963,0,20.963
						s5.833-2.414,6.833,0c1,2.414,2.833,7.586,2.833,7.586s4-2,7.167-6.167c3.167-4.167,10.614,0,10.614,0
						C292.434,192.673,290.267,178.883,290.267,178.883z M285.31,178.637c-7.938,24.922-14.938,26.036-14.938,26.036
						c-2.333-9.167-4.333-7.167-7.5-12.894c-2.541-4.595-1.681-10.421-1.242-12.545c0.107-0.516,0.434-0.963,0.904-1.202
						c7.877-4.01,17.516-2.535,21.49-1.657C285.035,176.598,285.625,177.651,285.31,178.637z"/>
					
						<use xlink:href="#XMLID_1_"  style="overflow:visible;fill:none;stroke:#263238;stroke-linecap:round;stroke-linejoin:round;stroke-miterlimit:10;"/>
				</g>
				<g>
					<path style="fill:#263238;stroke:#263238;stroke-linecap:round;stroke-linejoin:round;stroke-miterlimit:10;" d="
						M256.798,140.801c0,0-17.666,3.538-7.937,15.029C259.652,168.574,256.798,140.801,256.798,140.801z"/>
					<path style="fill:#FFFFFF;stroke:#263238;stroke-linecap:round;stroke-linejoin:round;stroke-miterlimit:10;" d="
						M249.833,168.839c0,0-4.2-17,3.8-25.167c8-8.167,16.667-9.833,23.167-5.833s9.167,14,8.167,19.167s-0.513,23.667-9.423,31.333
						c-8.91,7.667-14.394,5.777-20.286-4.667C251.384,176.81,249.533,174.839,249.833,168.839z"/>
					<path style="fill:#263238;stroke:#263238;stroke-linecap:round;stroke-linejoin:round;stroke-miterlimit:10;" d="
						M280.796,165.506c0,0-6.717-6.667-8.773-14.5s-3.223-9.167-10.89-5.333c-7.667,3.833-19.63-1.327-16.5-11
						c3.289-10.167,13.333,3,23-0.333c9.667-3.333,16.523,2.667,16.537,11.5c0,0,5.842,5.667-0.014,20.333L280.796,165.506z"/>
					<path style="fill:#FFFFFF;stroke:#263238;stroke-linecap:round;stroke-linejoin:round;stroke-miterlimit:10;" d="
						M278.689,164.388c0,0,1.699-9.319,6.426-8.455c4.727,0.864,1.347,14.614-4.213,13.114"/>
					<path style="fill:#FFFFFF;stroke:#263238;stroke-linecap:round;stroke-linejoin:round;stroke-miterlimit:10;" d="
						M256.216,167.548c0,0-1.852,8.648-1.25,10.135c0.602,1.487,6.328,0.349,6.328,0.349"/>
					<path style="fill:#FFFFFF;stroke:#263238;stroke-linecap:round;stroke-linejoin:round;stroke-miterlimit:10;" d="
						M262.091,181.798c0,0,4.484,1.77,8.429-4.115"/>
					<path style="fill:#263238;" d="M253.147,168.268c0.167,0.806-0.043,1.531-0.47,1.62c-0.427,0.089-0.909-0.493-1.076-1.299
						c-0.167-0.806,0.043-1.531,0.47-1.619C252.498,166.881,252.98,167.463,253.147,168.268z"/>
					<path style="fill:#263238;" d="M264.114,167.387c0.167,0.806-0.043,1.531-0.47,1.62c-0.427,0.089-0.909-0.493-1.076-1.299
						c-0.167-0.806,0.043-1.531,0.47-1.62C263.465,166,263.947,166.581,264.114,167.387z"/>
					<path style="fill:none;stroke:#263238;stroke-linecap:round;stroke-linejoin:round;stroke-miterlimit:10;" d="M255.453,167.894
						c0.226,2.265-2.051,4.348-5.086,4.651c-3.035,0.303-5.679-1.287-5.906-3.552c-0.227-2.265,2.159-3.265,5.194-3.568
						C252.69,165.121,255.226,165.628,255.453,167.894z"/>
					<path style="fill:none;stroke:#263238;stroke-linecap:round;stroke-linejoin:round;stroke-miterlimit:10;" d="M269.604,166.479
						c0.226,2.265-2.05,4.348-5.085,4.651c-3.035,0.303-5.679-1.287-5.906-3.552c-0.227-2.265,2.159-3.265,5.194-3.568
						C266.842,163.706,269.378,164.214,269.604,166.479z"/>
					
						<line style="fill:#FFFFFF;stroke:#263238;stroke-linecap:round;stroke-linejoin:round;stroke-miterlimit:10;" x1="255.453" y1="167.894" x2="258.613" y2="167.578"/>
					
						<line style="fill:#FFFFFF;stroke:#263238;stroke-linecap:round;stroke-linejoin:round;stroke-miterlimit:10;" x1="269.216" y1="165.345" x2="280.841" y2="158.49"/>
					
						<line style="fill:#FFFFFF;stroke:#263238;stroke-linecap:round;stroke-linejoin:round;stroke-miterlimit:10;" x1="282.835" y1="176.008" x2="283.383" y2="177.339"/>
					<path style="fill:#FFFFFF;stroke:#263238;stroke-linecap:round;stroke-linejoin:round;stroke-miterlimit:10;" d="
						M248.899,164.239c0,0,1.769-2.254,3.943-1.168"/>
					<path style="fill:#FFFFFF;stroke:#263238;stroke-linecap:round;stroke-linejoin:round;stroke-miterlimit:10;" d="
						M267.017,163.232c0,0-3.111-2.965-6.104-0.886"/>
					<g>
						<path style="fill:none;stroke:#7F7F7F;stroke-linecap:round;stroke-linejoin:round;" d="M252.827,135.795
							c4.729,1.504,12.691,3.34,19.196,1.377c9.943-3,6.568,8.195,8.818,11.285"/>
						<path style="fill:none;stroke:#7F7F7F;stroke-linecap:round;stroke-linejoin:round;" d="M248.731,134.298
							c0,0,0.794,0.349,2.139,0.834"/>
					</g>
					<g>
						<path style="fill:none;stroke:#7F7F7F;stroke-linecap:round;stroke-linejoin:round;" d="M260.677,141.369
							c0.531-0.162,1.085-0.351,1.664-0.568"/>
						<path style="fill:none;stroke:#7F7F7F;stroke-linecap:round;stroke-linejoin:round;" d="M249.833,140.048
							c0,0,2.113,3.276,8.942,1.818"/>
					</g>
					<g>
						<path style="fill:none;stroke:#7F7F7F;stroke-linecap:round;stroke-linejoin:round;" d="M275.226,146.46
							c0.42,2.845,1.497,6.971,4.24,10.712"/>
						<path style="fill:none;stroke:#7F7F7F;stroke-linecap:round;stroke-linejoin:round;" d="M274.966,142.923
							c0,0-0.025,0.672,0.062,1.788"/>
					</g>
				</g>
				<path style="opacity:0.3;" d="M283.86,250.196c-0.805,0.72-0.337,2.049,0.743,2.054c6.752,0.032,24.971,0.077,32.036-0.327
					c8.75-0.5,2.071-10.021-4.964-6.385C305.191,248.888,291.552,243.31,283.86,250.196z"/>
			</g>
			<path style="fill:#FFFFFF;stroke:#263238;stroke-linecap:round;stroke-linejoin:round;stroke-miterlimit:10;" d="
				M207.711,240.821c0,0,4.087-10.89,14.346-9.161c10.363,1.746,2.418,10.317-2.514,11.084
				C219.543,242.744,218.794,239.754,207.711,240.821z"/>
			<path style="fill:#FFFFFF;stroke:#263238;stroke-linecap:round;stroke-linejoin:round;stroke-miterlimit:10;" d="M199.023,247
				c-1.354,1.354-4.601,1.47-2.417-1.463c2.417-3.245,5.141-4.333,7-5.163c4.866-2.172,6.764-1.737,11.166-2.701
				c4.403-0.964,5.226,0.825,6.75,1.661c3.628,1.989,4.5,2.333,5.417,4.333s1.917,4.603-0.917,4.603c-2.583,0-2.75-4.269-5.25-4.103
				c-2.5,0.167-3.75,4.103-5.5,4.103s0.833,0-0.667,0s-1.581-1.247-0.663-3.208c0.918-1.962,1.913-3.728,1.913-3.728
				s-2.175,0.99-3.375,3.542c-1.2,2.552-1.422,3.628-3.628,3.628c-2.206,0-2.053-1.64,0.141-5.259c0,0-1.977,1.086-3.058,3.129
				c-1.081,2.044-1.644,1.896-3.061,1.896c-1.853,0-1.728-3.061,1.564-5.061C204.44,243.208,203.71,242.313,199.023,247z"/>
			
				<path style="fill:#FFFFFF;stroke:#263238;stroke-width:0.75;stroke-linecap:round;stroke-linejoin:round;stroke-miterlimit:10;" d="
				M211.879,239.688c0,0-1.294-0.063-2.106,2.125"/>
		</g>
	</g>
</g>
<g id="Code">
	<g>
		<g>
			<path style="fill:none;stroke:#263238;stroke-width:0.75;stroke-linecap:round;stroke-linejoin:round;stroke-miterlimit:10;" d="
				M376.197,145.537c6.379,5.013,12.528,10.46,18.408,16.34"/>
			<path style="fill:none;stroke:#263238;stroke-width:0.75;stroke-linecap:round;stroke-linejoin:round;stroke-miterlimit:10;" d="
				M369.22,140.29c1.222,0.879,2.437,1.773,3.644,2.682"/>
			<path style="fill:none;stroke:#263238;stroke-width:0.75;stroke-linecap:round;stroke-linejoin:round;stroke-miterlimit:10;" d="
				M362.251,135.495c1.254,0.825,2.501,1.665,3.741,2.52"/>
			<path style="fill:none;stroke:#263238;stroke-width:0.75;stroke-linecap:round;stroke-linejoin:round;stroke-miterlimit:10;" d="
				M311.093,111.295c16.355,5.097,32.195,12.296,47.097,21.598"/>
			<path style="fill:none;stroke:#263238;stroke-width:0.75;stroke-linecap:round;stroke-linejoin:round;stroke-miterlimit:10;" d="
				M300.168,108.221c2.025,0.509,4.045,1.05,6.057,1.623"/>
			<path style="fill:none;stroke:#263238;stroke-width:0.75;stroke-linecap:round;stroke-linejoin:round;stroke-miterlimit:10;" d="
				M288.935,105.729c2.198,0.423,4.39,0.882,6.575,1.378"/>
			<path style="fill:none;stroke:#263238;stroke-width:0.75;stroke-linecap:round;stroke-linejoin:round;stroke-miterlimit:10;" d="
				M278.922,104.058c1.896,0.268,3.788,0.563,5.678,0.885"/>
			<path style="fill:none;stroke:#263238;stroke-width:0.75;stroke-linecap:round;stroke-linejoin:round;stroke-miterlimit:10;" d="
				M218.609,104.46c18.537-2.878,37.393-3.2,56.001-0.967"/>
			<path style="fill:none;stroke:#263238;stroke-width:0.75;stroke-linecap:round;stroke-linejoin:round;stroke-miterlimit:10;" d="
				M210.358,105.915c1.702-0.336,3.407-0.65,5.116-0.943"/>
			<path style="fill:none;stroke:#263238;stroke-width:0.75;stroke-linecap:round;stroke-linejoin:round;stroke-miterlimit:10;" d="
				M202.354,107.662c1.703-0.408,3.41-0.793,5.121-1.157"/>
			<path style="fill:none;stroke:#263238;stroke-width:0.75;stroke-linecap:round;stroke-linejoin:round;stroke-miterlimit:10;" d="
				M192.509,110.28c1.737-0.509,3.48-0.994,5.228-1.456"/>
			<path style="fill:none;stroke:#263238;stroke-width:0.75;stroke-linecap:round;stroke-linejoin:round;stroke-miterlimit:10;" d="
				M132.999,138.888c16.838-11.805,35.059-20.775,53.998-26.908"/>
		</g>
		<path style="fill:none;stroke:#263238;stroke-width:0.75;stroke-linecap:round;stroke-linejoin:round;stroke-miterlimit:10;" d="
			M124.96,144.824c1.564-1.215,3.142-2.404,4.733-3.568"/>
		<path style="fill:none;stroke:#263238;stroke-width:0.75;stroke-linecap:round;stroke-linejoin:round;stroke-miterlimit:10;" d="
			M116.898,151.421c1.714-1.477,3.448-2.921,5.199-4.332"/>
		<path style="fill:none;stroke:#263238;stroke-width:0.75;stroke-linecap:round;stroke-linejoin:round;stroke-miterlimit:10;" d="
			M105.639,161.877c2.346-2.346,4.735-4.623,7.164-6.831"/>
	</g>
	<g>
		<g>
			<g>
				<defs>
					
						<ellipse id="XMLID_7_" transform="matrix(0.2318 -0.9728 0.9728 0.2318 0.1777 250.9181)" cx="158.964" cy="125.347" rx="24.877" ry="24.877"/>
				</defs>
				<use xlink:href="#XMLID_7_"  style="overflow:visible;fill:#92E3A9;"/>
				<clipPath id="XMLID_00000034790462132681664420000015771369726947938992_">
					<use xlink:href="#XMLID_7_"  style="overflow:visible;"/>
				</clipPath>
				
					<ellipse transform="matrix(0.2318 -0.9728 0.9728 0.2318 0.1777 250.9181)" style="opacity:0.3;clip-path:url(#XMLID_00000034790462132681664420000015771369726947938992_);fill:#FFFFFF;" cx="158.964" cy="125.347" rx="24.877" ry="24.877"/>
				
					<use xlink:href="#XMLID_7_"  style="overflow:visible;fill:none;stroke:#263238;stroke-width:0.75;stroke-linecap:round;stroke-linejoin:round;stroke-miterlimit:10;"/>
			</g>
		</g>
		<g>
			
				<path style="fill:#FFFFFF;stroke:#263238;stroke-width:0.75;stroke-linecap:round;stroke-linejoin:round;stroke-miterlimit:10;" d="
				M147.041,135.131v-6.23c0-1.557-0.44-2.032-2.132-2.032v-3.046c1.693,0,2.132-0.474,2.132-2.032v-6.228
				c0-2.573,1.659-3.759,3.758-3.759h1.895v3.047h-0.542c-1.185,0-1.794,0.542-1.794,2.404v5.078c0,1.218-0.44,2.506-2.065,2.98
				v0.067c1.625,0.474,2.065,1.76,2.065,2.979v5.079c0,1.862,0.609,2.402,1.794,2.402h0.542v3.047H150.8
				C148.701,138.888,147.041,137.703,147.041,135.131z"/>
			
				<path style="fill:#FFFFFF;stroke:#263238;stroke-width:0.75;stroke-linecap:round;stroke-linejoin:round;stroke-miterlimit:10;" d="
				M165.232,135.841h0.542c1.185,0,1.795-0.54,1.795-2.402v-5.079c0-1.218,0.44-2.504,2.065-2.979v-0.067
				c-1.625-0.474-2.065-1.761-2.065-2.98v-5.078c0-1.862-0.609-2.404-1.795-2.404h-0.542v-3.047h1.896
				c2.098,0,3.757,1.185,3.757,3.759v6.228c0,1.558,0.44,2.032,2.132,2.032v3.046c-1.693,0-2.132,0.474-2.132,2.032v6.23
				c0,2.572-1.66,3.757-3.757,3.757h-1.896V135.841z"/>
		</g>
	</g>
	<g>
		
			<path style="fill:#92E3A9;stroke:#263238;stroke-width:0.75;stroke-linecap:round;stroke-linejoin:round;stroke-miterlimit:10;" d="
			M110.758,195.38H96.405c-6.604,0-11.958-5.354-11.958-11.958v-14.353c0-6.604,5.354-11.958,11.958-11.958h14.353
			c6.604,0,11.958,5.354,11.958,11.958v14.353C122.716,190.026,117.362,195.38,110.758,195.38z"/>
		<g>
			
				<path style="fill:#FFFFFF;stroke:#263238;stroke-width:0.75;stroke-linecap:round;stroke-linejoin:round;stroke-miterlimit:10;" d="
				M89.714,177.171v-1.85l7.651-3.3v2l-5.275,2.225l5.275,2.225v2L89.714,177.171z"/>
			
				<path style="fill:#FFFFFF;stroke:#263238;stroke-width:0.75;stroke-linecap:round;stroke-linejoin:round;stroke-miterlimit:10;" d="
				M105.844,167.495h2.376l-6.901,17.5h-2.375L105.844,167.495z"/>
			
				<path style="fill:#FFFFFF;stroke:#263238;stroke-width:0.75;stroke-linecap:round;stroke-linejoin:round;stroke-miterlimit:10;" d="
				M109.799,178.47l5.275-2.225l-5.275-2.225v-2l7.65,3.3v1.85l-7.65,3.3V178.47z"/>
		</g>
	</g>
	<g>
		<g>
			<defs>
				
					<ellipse id="XMLID_5_" transform="matrix(0.2277 -0.9737 0.9737 0.2277 142.5091 419.11)" cx="335.461" cy="119.718" rx="21.234" ry="21.234"/>
			</defs>
			<use xlink:href="#XMLID_5_"  style="overflow:visible;fill:#92E3A9;"/>
			<clipPath id="XMLID_00000128461027449655910490000011538507056344413364_">
				<use xlink:href="#XMLID_5_"  style="overflow:visible;"/>
			</clipPath>
			
				<ellipse transform="matrix(0.2277 -0.9737 0.9737 0.2277 142.5091 419.11)" style="opacity:0.2;clip-path:url(#XMLID_00000128461027449655910490000011538507056344413364_);" cx="335.461" cy="119.718" rx="21.234" ry="21.234"/>
			
				<use xlink:href="#XMLID_5_"  style="overflow:visible;fill:none;stroke:#263238;stroke-width:0.75;stroke-linecap:round;stroke-linejoin:round;stroke-miterlimit:10;"/>
		</g>
		<g>
			
				<path style="fill:#FFFFFF;stroke:#263238;stroke-width:0.75;stroke-linecap:round;stroke-linejoin:round;stroke-miterlimit:10;" d="
				M322.332,124.115v-8.796c0-2.526,1.31-4.023,3.79-4.023c2.48,0,3.789,1.497,3.789,4.023v1.731h-2.432v-1.895
				c0-1.075-0.515-1.52-1.287-1.52c-0.772,0-1.287,0.445-1.287,1.52v9.147c0,1.076,0.514,1.497,1.287,1.497
				c0.772,0,1.287-0.421,1.287-1.497v-2.503h2.432v2.316c0,2.527-1.31,4.024-3.789,4.024
				C323.643,128.139,322.332,126.642,322.332,124.115z"/>
			
				<path style="fill:#FFFFFF;stroke:#263238;stroke-width:0.75;stroke-linecap:round;stroke-linejoin:round;stroke-miterlimit:10;" d="
				M334.268,120.63h-3.135v-1.825h3.135v-3.158h1.824v3.158h3.135v1.825h-3.135v3.205h-1.824V120.63z"/>
			
				<path style="fill:#FFFFFF;stroke:#263238;stroke-width:0.75;stroke-linecap:round;stroke-linejoin:round;stroke-miterlimit:10;" d="
				M343.63,120.63h-3.135v-1.825h3.135v-3.158h1.824v3.158h3.135v1.825h-3.135v3.205h-1.824V120.63z"/>
		</g>
	</g>
	<g>
		
			<path style="fill:#92E3A9;stroke:#263238;stroke-width:0.75;stroke-linecap:round;stroke-linejoin:round;stroke-miterlimit:10;" d="
			M254.067,124.625h-19.186c-7.511,0-13.6-6.089-13.6-13.6V91.839c0-7.511,6.089-13.6,13.6-13.6h19.186
			c7.511,0,13.6,6.089,13.6,13.6v19.187C267.667,118.536,261.578,124.625,254.067,124.625z"/>
		<g>
			
				<path style="fill:#FFFFFF;stroke:#263238;stroke-width:0.75;stroke-linecap:round;stroke-linejoin:round;stroke-miterlimit:10;" d="
				M230.531,106.316v-9.769c0-2.805,1.456-4.468,4.209-4.468c2.754,0,4.209,1.663,4.209,4.468v1.923h-2.701v-2.105
				c0-1.194-0.572-1.688-1.429-1.688c-0.858,0-1.429,0.494-1.429,1.688v10.159c0,1.195,0.571,1.663,1.429,1.663
				c0.857,0,1.429-0.467,1.429-1.663v-2.78h2.701v2.572c0,2.806-1.454,4.469-4.209,4.469
				C231.986,110.785,230.531,109.122,230.531,106.316z"/>
			
				<path style="fill:#FFFFFF;stroke:#263238;stroke-width:0.75;stroke-linecap:round;stroke-linejoin:round;stroke-miterlimit:10;" d="
				M240.226,106.212v-1.04h2.702v1.247c0,1.299,0.571,1.766,1.481,1.766c0.91,0,1.481-0.467,1.481-1.818
				c0-1.507-0.571-2.468-2.442-4.105c-2.391-2.104-3.17-3.586-3.17-5.663c0-2.858,1.482-4.521,4.262-4.521
				c2.78,0,4.157,1.663,4.157,4.573v0.753h-2.702V96.47c0-1.299-0.519-1.793-1.429-1.793c-0.909,0-1.429,0.494-1.429,1.741
				c0,1.324,0.598,2.286,2.469,3.922c2.39,2.105,3.144,3.56,3.144,5.82c0,2.963-1.507,4.626-4.313,4.626
				C241.63,110.785,240.226,109.122,240.226,106.212z"/>
			
				<path style="fill:#FFFFFF;stroke:#263238;stroke-width:0.75;stroke-linecap:round;stroke-linejoin:round;stroke-miterlimit:10;" d="
				M249.896,106.212v-1.04h2.702v1.247c0,1.299,0.571,1.766,1.481,1.766c0.91,0,1.481-0.467,1.481-1.818
				c0-1.507-0.571-2.468-2.442-4.105c-2.391-2.104-3.17-3.586-3.17-5.663c0-2.858,1.482-4.521,4.262-4.521
				c2.78,0,4.157,1.663,4.157,4.573v0.753h-2.702V96.47c0-1.299-0.519-1.793-1.429-1.793c-0.909,0-1.429,0.494-1.429,1.741
				c0,1.324,0.598,2.286,2.469,3.922c2.391,2.105,3.144,3.56,3.144,5.82c0,2.963-1.507,4.626-4.314,4.626
				C251.299,110.785,249.896,109.122,249.896,106.212z"/>
		</g>
	</g>
	<g>
		<g>
			<defs>
				
					<ellipse id="XMLID_6_" transform="matrix(0.2319 -0.9728 0.9728 0.2319 140.6628 507.3833)" cx="391.597" cy="164.627" rx="21.179" ry="21.179"/>
			</defs>
			<use xlink:href="#XMLID_6_"  style="overflow:visible;fill:#92E3A9;"/>
			<clipPath id="XMLID_00000180367399087474513170000017382342104776597939_">
				<use xlink:href="#XMLID_6_"  style="overflow:visible;"/>
			</clipPath>
			
				<ellipse transform="matrix(0.2319 -0.9728 0.9728 0.2319 140.6628 507.3833)" style="opacity:0.3;clip-path:url(#XMLID_00000180367399087474513170000017382342104776597939_);fill:#FFFFFF;" cx="391.597" cy="164.627" rx="21.179" ry="21.179"/>
			
				<use xlink:href="#XMLID_6_"  style="overflow:visible;fill:none;stroke:#263238;stroke-width:0.75;stroke-linecap:round;stroke-linejoin:round;stroke-miterlimit:10;"/>
		</g>
		<g>
			
				<path style="fill:#FFFFFF;stroke:#263238;stroke-width:0.75;stroke-linecap:round;stroke-linejoin:round;stroke-miterlimit:10;" d="
				M383.267,168.829v-8.406c0-2.414,1.252-3.844,3.621-3.844c2.37,0,3.621,1.431,3.621,3.844v1.655h-2.324v-1.811
				c0-1.027-0.492-1.452-1.23-1.452c-0.738,0-1.229,0.425-1.229,1.452v8.741c0,1.028,0.491,1.431,1.229,1.431
				c0.737,0,1.23-0.402,1.23-1.431v-2.392h2.324v2.213c0,2.415-1.251,3.845-3.621,3.845
				C384.52,172.674,383.267,171.244,383.267,168.829z"/>
			
				<path style="fill:#FFFFFF;stroke:#263238;stroke-width:0.75;stroke-linecap:round;stroke-linejoin:round;stroke-miterlimit:10;" d="
				M392.527,167.98h-1.096l0.179-1.744h1.095l0.425-4.091h-1.118l0.178-1.744h1.118l0.38-3.6h1.945l-0.38,3.6h1.587l0.38-3.6h1.945
				l-0.38,3.6h1.14l-0.179,1.744h-1.14l-0.425,4.091h1.14l-0.179,1.744h-1.14l-0.469,4.47h-1.945l0.469-4.47h-1.586l-0.47,4.47
				h-1.945L392.527,167.98z M396.237,166.236l0.425-4.091h-1.587l-0.425,4.091H396.237z"/>
		</g>
	</g>
</g>
<g id="Desk">
	<g>
		<polygon style="fill:#858585;stroke:#263238;stroke-linecap:round;stroke-linejoin:round;stroke-miterlimit:10;" points="
			141.227,408.506 137.521,408.506 136.521,261.251 141.227,261.251 		"/>
		<polygon style="fill:#999999;stroke:#263238;stroke-linecap:round;stroke-linejoin:round;stroke-miterlimit:10;" points="
			144.932,408.506 141.227,408.506 141.227,261.251 145.932,261.251 		"/>
		
			<rect x="98.779" y="252.235" style="fill:#263238;stroke:#263238;stroke-linecap:round;stroke-linejoin:round;stroke-miterlimit:10;" width="254.206" height="9.016"/>
		
			<rect x="349.193" y="252.235" style="fill:#858585;stroke:#263238;stroke-linecap:round;stroke-linejoin:round;stroke-miterlimit:10;" width="56.919" height="9.016"/>
		<rect x="111.799" y="261.251" style="fill:#92E3A9;stroke:#263238;stroke-miterlimit:10;" width="252.723" height="14.864"/>
		<g>
			<defs>
				
					<rect id="XMLID_4_" x="364.522" y="261.251" transform="matrix(-1 -1.224647e-16 1.224647e-16 -1 758.4713 537.3657)" width="29.428" height="14.864"/>
			</defs>
			<use xlink:href="#XMLID_4_"  style="overflow:visible;fill:#92E3A9;"/>
			<clipPath id="XMLID_00000038381595674831749270000012946137212940263597_">
				<use xlink:href="#XMLID_4_"  style="overflow:visible;"/>
			</clipPath>
			
				<rect x="364.522" y="261.251" transform="matrix(-1 -1.224647e-16 1.224647e-16 -1 758.4713 537.3657)" style="opacity:0.3;clip-path:url(#XMLID_00000038381595674831749270000012946137212940263597_);" width="29.428" height="14.864"/>
			<use xlink:href="#XMLID_4_"  style="overflow:visible;fill:none;stroke:#263238;stroke-miterlimit:10;"/>
		</g>
		<polygon style="fill:#858585;stroke:#263238;stroke-linecap:round;stroke-linejoin:round;stroke-miterlimit:10;" points="
			364.522,408.506 360.816,408.506 359.816,261.251 364.522,261.251 		"/>
		<polygon style="fill:#999999;stroke:#263238;stroke-linecap:round;stroke-linejoin:round;stroke-miterlimit:10;" points="
			368.227,408.506 364.522,408.506 364.522,261.251 369.227,261.251 		"/>
		<polygon style="fill:#858585;stroke:#263238;stroke-linecap:round;stroke-linejoin:round;stroke-miterlimit:10;" points="
			111.799,408.506 108.093,408.506 107.093,261.251 111.799,261.251 		"/>
		<polygon style="fill:#999999;stroke:#263238;stroke-linecap:round;stroke-linejoin:round;stroke-miterlimit:10;" points="
			115.505,408.506 111.799,408.506 111.799,261.251 116.505,261.251 		"/>
		<g>
			<polygon style="fill:#858585;stroke:#263238;stroke-linecap:round;stroke-linejoin:round;stroke-miterlimit:10;" points="
				393.949,408.506 390.244,408.506 389.244,261.251 393.949,261.251 			"/>
			<polygon style="fill:#999999;stroke:#263238;stroke-linecap:round;stroke-linejoin:round;stroke-miterlimit:10;" points="
				397.655,408.506 393.949,408.506 393.949,261.251 398.655,261.251 			"/>
		</g>
	</g>
	<g>
		<g>
			<path style="fill:#858585;stroke:#263238;stroke-linecap:round;stroke-linejoin:round;stroke-miterlimit:10;" d="
				M263.052,251.235h-29.794c-0.609,0-1.103-0.494-1.103-1.103v-2.459l32,1v1.459C264.155,250.741,263.661,251.235,263.052,251.235z
				"/>
			<path style="fill:#999999;stroke:#263238;stroke-linecap:round;stroke-linejoin:round;stroke-miterlimit:10;" d="
				M228.833,251.235h-59.894c-0.959,0-1.895-0.711-2.188-1.662l-12.856-41.74c-0.353-1.145,0.359-2.161,1.514-2.161h59.894
				c0.959,0,1.895,0.711,2.188,1.662l12.856,41.74C230.699,250.219,229.987,251.235,228.833,251.235z"/>
			<path style="fill:#858585;stroke:#263238;stroke-linecap:round;stroke-linejoin:round;stroke-miterlimit:10;" d="
				M233.038,249.074l-12.857-41.74c-0.293-0.951-1.229-1.662-2.188-1.662h-2.691c0.959,0,1.895,0.711,2.188,1.662l12.856,41.74
				c0.353,1.145-0.359,2.161-1.514,2.161h2.691C232.678,251.235,233.39,250.219,233.038,249.074z"/>
		</g>
		<path style="fill:#FFFFFF;stroke:#263238;stroke-linecap:round;stroke-linejoin:round;stroke-miterlimit:10;" d="M195.825,228.454
			c0.251,2.046-1.204,3.705-3.25,3.705c-2.046,0-3.908-1.659-4.16-3.705c-0.251-2.046,1.204-3.705,3.25-3.705
			C193.712,224.749,195.574,226.408,195.825,228.454z"/>
	</g>
</g>
</svg>
