<svg id="SvgjsSvg1001" width="288" height="288" xmlns="http://www.w3.org/2000/svg" version="1.1" xmlns:xlink="http://www.w3.org/1999/xlink" xmlns:svgjs="http://svgjs.com/svgjs"><defs id="SvgjsDefs1002"></defs><g id="SvgjsG1008"><svg xmlns="http://www.w3.org/2000/svg" enable-background="new 0 0 1024 1024" viewBox="0 0 1024 1024" width="288" height="288"><path d="M657.012634 434.510498C655.10553 428.925781 655.578369 423.610443 656.115784 418.296692 656.215942 417.30658 656.529114 416.334442 656.589233 415.344635 656.712219 413.321045 656.810242 411.02124 654.764893 410.003754 652.55603 408.904907 651.009521 410.792725 649.710815 412.236328 645.773071 416.613373 643.215088 421.8974 640.39624 426.993958 638.300232 430.783539 636.450073 434.709229 634.347656 438.494965 632.936462 441.036224 631.114563 443.580261 627.724854 442.533875 624.176758 441.438507 623.788086 438.1698 624.165039 435.108643 625.024658 428.128448 624.522827 421.124298 624.847656 414.139038 624.922302 412.535278 625.309509 410.489349 623.235901 409.877777 621.383545 409.33139 620.137695 410.803864 619.149231 412.159912 615.111755 417.698975 612.032349 423.811279 608.735718 429.791718 607.931641 431.250366 607.239014 432.771118 606.417664 434.219391 604.295044 437.96283 602.488892 442.83725 596.979919 441.226196 591.961426 439.758545 593.740173 434.887421 593.750671 431.303253 593.769165 424.979126 594.198914 418.655396 594.496277 412.333374 594.575073 410.658661 594.556885 409.03717 593.554199 407.150696 590.836365 409.679352 589.767578 412.835693 588.409546 415.794006 585.479919 422.175781 582.09491 428.298309 577.58252 433.695984 568.488098 444.574554 559.101135 444.402069 550.355103 433.039581 546.27832 436.82019 542.534241 441.269562 536.278625 441.294922 529.883118 441.320892 526.403503 437.270203 523.526062 431.856445 518.180176 437.279785 513.231628 442.930603 504.728363 441.330994 496.517883 439.786499 493.164215 433.038513 489.033752 426.512421 486.135529 429.852692 483.649567 433.137848 480.732727 435.980835 476.386322 440.217194 471.334442 442.738647 464.913513 441.325287 460.349426 440.320709 458.28479 436.657104 455.742432 433.004974 451.191223 437.569458 446.794861 442.15332 439.865784 441.196838 432.774841 440.218018 429.84726 434.765778 427.702271 428.342773 422.52179 430.532867 417.694519 432.005066 412.411194 431.882172 409.970276 431.825378 409.124176 434.927795 407.512024 436.540192 397.927368 446.126007 382.61377 444.070953 377.317352 432.399689 372.98111 422.84433 377.278748 409.857483 386.420837 405.046936 388.641022 403.878754 391.380157 402.372864 393.174408 404.998444 395.217102 407.98761 392.215729 409.311981 390.182892 410.694183 384.417999 414.613983 381.659882 420.559906 382.897461 426.420441 384.73999 435.145752 393.655182 438.699829 401.03183 433.64978 404.854095 431.03299 404.9133 429.716797 401.439148 426.529266 396.053284 421.58783 393.296234 415.646515 394.782806 408.225281 395.578308 404.253937 397.935425 401.526367 402.026062 400.948761 405.889313 400.40329 408.857361 402.351929 410.825928 405.522064 413.640411 410.054535 414.470123 415.164825 414.176636 420.409485 413.938477 424.664612 416.002441 425.264191 419.444153 424.207275 425.152771 422.454285 427.830719 417.93399 429.766052 412.802429 431.058258 409.376251 432.002075 405.797516 434.424438 402.917877 435.7901 401.294434 437.371674 399.975006 439.55545 401.447571 441.647552 402.858337 441.42688 404.776978 440.301849 406.721466 436.802216 412.770203 434.890228 419.204559 435.259033 426.271118 435.414948 429.258545 435.90274 432.100098 438.927582 433.3479 441.938721 434.590118 444.81546 433.78891 447.291046 431.659149 452.456635 427.215118 453.02359 421.02713 453.669098 414.866974 453.980774 411.892365 454.269104 408.914856 454.626587 405.945709 454.87442 403.887451 455.917145 402.418488 458.156158 402.515076 460.781189 402.628326 461.327301 404.546844 461.312256 406.736572 461.287109 410.398315 461.426849 414.062836 460.663879 417.692169 459.770325 421.942596 460.803864 426.022705 462.428925 429.865692 464.519714 434.809967 468.421783 435.940277 472.992096 433.298553 480.680847 428.85437 485.930847 418.135803 484.749786 409.347412 482.872803 395.380371 483.448181 381.429779 485.074921 367.489044 485.207397 366.35376 485.756683 365.220825 484.887268 363.84198 481.561035 362.549286 477.873871 363.346069 474.277496 363.23819 469.115387 363.083282 463.944977 363.216583 458.781433 363.090668 456.888214 363.044464 455.010986 362.467834 454.806946 360.128357 454.577148 357.493378 456.444977 356.671082 458.585815 356.438995 460.73291 356.206238 462.904327 356.134918 465.066223 356.115112 470.232239 356.06781 475.419128 355.807587 480.559479 356.171387 485.341156 356.509796 488.275208 355.115173 490.139282 350.397766 491.766449 346.279846 494.848877 342.727722 499.962341 343.394531 504.850281 344.031921 506.589325 348.017792 507.41571 352.312836 507.996094 355.329041 509.498322 356.258148 512.598145 356.193054 522.926331 355.976288 533.261963 356.089996 543.594543 356.119049 545.253357 356.123718 546.932251 356.219971 548.564514 356.495361 550.520325 356.825348 552.135803 357.845245 551.958984 360.089905 551.803528 362.062866 550.161621 362.801361 548.428528 363.032471 546.950134 363.229614 545.4375 363.212738 543.93988 363.21582 533.773743 363.236816 523.606628 363.318115 513.441895 363.201416 509.940155 363.161194 508.468201 364.250275 508.274597 368.032074 507.437531 384.381287 502.935425 399.827118 495.905701 414.553558 492.841431 420.97287 499.515472 433.753937 506.581268 434.465637 510.68924 434.879364 513.247314 432.003479 515.738953 429.246246 520.928833 423.503143 523.395081 416.022003 528.196655 409.994507 534.63562 401.91156 544.58136 398.499359 552.952637 402.042664 554.316406 402.619904 555.629333 403.415161 556.802307 404.321228 558.367676 405.530487 559.289917 407.160248 558.119324 409.10675 556.855225 411.208801 555.129333 411.189819 552.959351 410.228851 540.307495 404.62616 529.478577 412.669159 530.312866 426.938232 530.478638 429.772247 531.188965 432.359039 534.059998 433.427155 536.930969 434.495239 539.612061 433.795532 541.889038 431.626892 545.019226 428.645599 546.833557 424.976227 547.716431 420.805023 548.218201 418.433929 548.850525 415.863403 551.782288 415.951263 555.178162 416.05304 555.191772 418.919495 555.380737 421.487885 555.489868 422.970245 555.866516 424.436096 556.165161 425.900757 556.914246 429.575195 557.83667 433.388336 562.012573 434.435699 565.868347 435.402771 568.658508 432.836609 571.120728 430.284149 575.09906 426.160065 577.824524 421.198212 580.317688 416.082397 582.720215 411.152588 584.655701 405.927368 588.454895 401.811096 590.634888 399.449219 593.021179 397.182343 596.679932 398.629517 600.104004 399.983826 601.214111 402.941559 601.26593 406.26651 601.379944 413.581512 601.301331 420.899475 601.301331 428.608734 604.425476 423.225098 607.479858 417.914978 610.583008 412.633484 612.188965 409.900146 613.846802 407.173523 616.46405 405.256866 619.723572 402.869873 623.349426 401.587494 627.222107 403.347229 630.817322 404.980927 631.864319 408.540527 632.111084 412.083893 632.410461 416.381561 632.182129 420.715942 632.921265 425.386871 634.907104 421.915741 636.849243 418.418671 638.889832 414.980011 641.446167 410.672241 644.026062 406.347626 648.689392 403.9104 656.259216 399.954102 663.136169 403.887085 663.317322 412.368958 663.434631 417.862885 663.07605 423.370514 663.291077 428.85788 663.506714 434.363251 666.876404 436.178436 671.75769 433.539886 677.799072 430.274261 680.68396 424.324677 684.013489 418.741486 685.475708 416.289459 686.087524 411.426819 690.311218 413.627808 694.594543 415.859863 691.474792 419.544342 690.055969 422.301666 686.511475 429.190308 682.032959 435.421875 675.274963 439.545135 667.997559 443.985199 661.43988 442.209351 657.012634 434.510498M492.334534 366.872894C491.030792 379.727295 489.108337 392.579224 491.861755 406.878937 492.938538 404.378143 493.495667 403.203583 493.957581 401.992676 498.061096 391.235687 500.199982 380.033386 501.391083 368.630676 501.584991 366.774323 502.514008 364.049408 499.867523 363.577057 497.268188 363.113098 493.704956 361.726868 492.334534 366.872894M402.762909 408.603119C400.326813 413.06842 401.523895 417.079498 406.810547 420.810638 406.503418 416.19104 408.099915 411.600739 402.762909 408.603119M496.176788 353.451385C495.209808 358.821716 498.880829 355.156281 500.518951 356.267761 500.735474 353.923798 500.599915 352.154785 499.040161 351.267975 497.745514 350.53183 497.087585 351.994507 496.176788 353.451385zM337.138367 401.141357C338.568298 399.061798 339.685913 397.191864 341.022583 395.494446 345.559601 389.732971 348.393372 383.369873 348.719116 375.924194 348.842377 373.107086 349.650726 370.324341 351.039368 367.821899 352.048615 366.003174 353.509857 364.573364 355.829254 364.870422 358.375732 365.196564 359.469635 367.1008 359.922913 369.324951 360.658142 372.932373 359.626678 376.424652 357.960114 379.45163 353.41861 387.700287 353.920197 396.417969 354.868683 405.243103 355.501831 411.134216 355.009674 417.166382 356.830231 422.95639 359.356476 423.153168 361.069336 421.522675 363.126312 421.012817 365.401154 420.448975 367.618622 420.485291 368.631104 422.996857 369.605194 425.413086 367.986969 427.136841 365.973969 427.532532 357.72699 429.153717 357.500488 434.406036 358.005371 441.48407 358.991028 455.302032 358.28363 469.142487 353.256317 482.357544 348.303741 495.376129 339.006226 502.512054 327.403656 502.26767 315.070892 502.007904 306.141144 491.100677 308.069336 478.857666 310.038147 466.357025 316.212067 456.056 324.654449 447.005829 331.036987 440.163727 338.195282 434.172058 346.227905 429.303345 348.157349 428.13385 349.946014 426.979858 349.573975 424.313385 348.475098 416.43634 347.494385 408.547516 347.650024 399.019073 343.727722 403.987671 340.869904 407.93985 337.67511 411.597717 323.327423 428.024963 306.259796 439.789246 283.973602 442.42691 255.384125 445.810577 237.542679 429.699036 238.585007 400.971313 239.633209 372.082458 254.775162 351.179688 277.666199 335.358337 291.503693 325.794434 307.063629 320.533112 324.148102 320.905945 347.81781 321.422516 365.003143 334.164215 370.626953 355.312408 371.221375 357.547607 371.536102 359.88266 371.725677 362.192291 371.891235 364.209412 371.029144 365.858002 368.811981 366.160126 366.618347 366.459015 365.348358 365.140778 364.855804 363.167572 364.132263 360.269012 363.829651 357.244995 362.900848 354.421417 357.805542 338.931396 345.176178 329.763885 328.517059 328.299896 291.605865 325.056091 253.841446 355.480896 246.765259 389.896942 245.175476 397.62912 244.791931 405.372314 246.414062 413.191895 249.161636 426.436737 259.751587 435.040283 273.878113 435.740143 295.861298 436.829254 313.108154 427.210663 327.95224 412.146423 331.211761 408.838501 333.948822 405.015717 337.138367 401.141357M339.966705 442.48877C335.313965 446.027222 331.102112 450.068268 327.393127 454.547668 321.065521 462.189636 315.720154 470.456329 315.362579 480.786652 314.950928 492.678131 325.334656 498.734589 335.841156 492.975739 342.133331 489.526855 345.270569 483.664124 347.387085 477.290619 351.765076 464.107239 351.430481 450.486267 350.402069 436.856262 350.385132 436.631439 349.950195 436.438141 349.623444 436.154877 346.171295 437.433685 343.334534 439.716522 339.966705 442.48877zM696.225708 437.189392C694.103943 439.863586 693.243591 445.057861 689.041199 442.630951 684.47345 439.992981 688.441345 436.4646 690.038574 433.716766 710.015747 399.348999 730.081238 365.032532 750.140076 330.712311 751.06134 329.136017 752.049255 327.582794 753.161316 326.138214 754.313843 324.640991 755.925537 324.248779 757.596069 325.202942 759.303711 326.178253 759.560303 327.835327 758.984802 329.55423 758.620483 330.642365 757.993469 331.65387 757.407532 332.654846 737.075378 367.393433 716.734009 402.126617 696.225708 437.189392zM780.651367 362.353088C790.072632 372.133636 800.339844 380.293091 811.694397 387.084381 817.364319 390.475647 817.485352 393.058289 811.716003 396.176147 800.689819 402.134888 790.790405 409.782532 780.358826 416.630066 779.246094 417.360474 778.182861 418.173035 777.035522 418.842712 775.107178 419.968201 773.210144 420.161285 771.776306 418.069611 770.358154 416.001099 771.048767 414.235687 772.913818 412.900391 776.703735 410.186951 780.524902 407.514923 784.382263 404.898224 790.833618 400.521881 797.323425 396.202301 804.350281 391.48764 800.72644 388.827393 797.41687 386.465851 794.180359 384.008179 786.875305 378.460999 779.874084 372.560577 773.781738 365.670776 771.972046 363.624207 769.08783 361.329407 772.059814 358.48465 775.102844 355.571899 777.048767 358.806946 779.064636 360.622772 779.557068 361.066437 779.967896 361.600739 780.651367 362.353088zM219.84111 357.790955C222.299469 356.887848 223.728638 357.822571 224.609756 359.693604 225.596161 361.788239 224.101761 363.232635 222.932831 364.552917 215.048676 373.457733 205.902588 380.929016 196.23082 387.788696 194.763107 388.829651 193.29541 389.870636 192.029434 390.768555 192.049103 392.959686 193.628906 393.180664 194.65535 393.876038 203.479706 399.853699 212.347046 405.768158 221.151291 411.775116 223.326233 413.259064 226.168854 414.921631 223.880325 418.091553 221.695801 421.117432 219.131424 419.271423 216.90213 417.753052 205.616058 410.065918 194.572952 402.020813 182.643814 395.299194 178.754288 393.107574 178.680145 390.317902 182.446274 388.116577 196.380112 379.972198 208.431351 369.563354 219.84111 357.790955z" fill="#ffffff" class="color000 svgShape"></path></svg></g></svg>